<svg width="65" height="65" viewBox="0 0 65 65" fill="none" xmlns="http://www.w3.org/2000/svg">
<rect width="65" height="65" fill="#0AABA4" fill-opacity="0.1"/>
<path d="M57.25 56.8975V59.6475H7.75V56.8975H57.25ZM57.25 7.39746H7.75V59.6475C6.32598 59.6475 5.15538 58.565 5.01477 57.1781L5 56.8975V7.39746C5 5.87868 6.23122 4.64746 7.75 4.64746H57.25L57.5306 4.66223C58.9176 4.80284 60 5.97344 60 7.39746V56.8975L59.9852 57.1781C59.854 58.4727 58.8253 59.5014 57.5306 59.6327L57.25 59.6475V7.39746Z" fill="#0AABA4"/>
<path d="M44.875 46.585V47.2725H20.125V46.585H44.875ZM46.9375 44.5225V19.7725C46.9375 18.6334 46.0141 17.71 44.875 17.71H20.125C18.9859 17.71 18.0625 18.6334 18.0625 19.7725V44.5225C18.0625 45.6615 18.9859 46.585 20.125 46.585V47.2725L19.8444 47.2577C18.5497 47.1264 17.521 46.0977 17.3898 44.8031L17.375 44.5225V19.7725C17.375 18.2537 18.6062 17.0225 20.125 17.0225H44.875C46.3938 17.0225 47.625 18.2537 47.625 19.7725V44.5225C47.625 45.9465 46.5426 47.1171 45.1556 47.2577L44.875 47.2725V46.585C46.0141 46.585 46.9375 45.6615 46.9375 44.5225Z" fill="#0AABA4"/>
<path d="M27 28.0225C27 27.2631 27.6156 26.6475 28.375 26.6475H36.625C37.3844 26.6475 38 27.2631 38 28.0225V36.2725C38 37.0319 37.3844 37.6475 36.625 37.6475H28.375C27.6156 37.6475 27 37.0319 27 36.2725V28.0225Z" fill="#0AABA4"/>
</svg>
