<svg preserveAspectRatio="none" width="100%" height="100%" overflow="visible" style="display: block;" viewBox="0 0 65 65" fill="none" xmlns="http://www.w3.org/2000/svg">
<g id="Frame 56">
<rect width="65" height="65" fill="#0AABA4" fill-opacity="0.1"/>
<g id="Vector">
<path d="M42.879 42.879V44.0323H22.121V42.879H42.879ZM42.879 22.121H22.121V44.0323C21.5238 44.0323 21.0329 43.5783 20.9739 42.9967L20.9677 42.879V22.121C20.9677 21.4841 21.4841 20.9677 22.121 20.9677H42.879L42.9967 20.9739C43.5783 21.0329 44.0323 21.5238 44.0323 22.121V42.879L44.0261 42.9967C43.971 43.5396 43.5396 43.971 42.9967 44.0261L42.879 44.0323V22.121Z" fill="var(--fill-0, #0AABA4)"/>
<path d="M37.6895 38.5544V38.8427H27.3105V38.5544H37.6895ZM38.5544 37.6895V27.3105C38.5544 26.8328 38.1672 26.4456 37.6895 26.4456H27.3105C26.8328 26.4456 26.4456 26.8328 26.4456 27.3105V37.6895C26.4456 38.1672 26.8328 38.5544 27.3105 38.5544V38.8427L27.1928 38.8365C26.6499 38.7815 26.2185 38.3501 26.1635 37.8072L26.1573 37.6895V27.3105C26.1573 26.6736 26.6736 26.1573 27.3105 26.1573H37.6895C38.3264 26.1573 38.8427 26.6736 38.8427 27.3105V37.6895C38.8427 38.2867 38.3888 38.7776 37.8072 38.8365L37.6895 38.8427V38.5544C38.1672 38.5544 38.5544 38.1672 38.5544 37.6895Z" fill="var(--fill-0, #0AABA4)"/>
<path d="M30.1935 30.7702C30.1935 30.4517 30.4517 30.1935 30.7702 30.1935H34.2298C34.5483 30.1935 34.8065 30.4517 34.8065 30.7702V34.2298C34.8065 34.5483 34.5483 34.8065 34.2298 34.8065H30.7702C30.4517 34.8065 30.1935 34.5483 30.1935 34.2298V30.7702Z" fill="var(--fill-0, #0AABA4)"/>
</g>
</g>
</svg>
